<?xml version="1.0" encoding="UTF-8"?><svg id="d" xmlns="http://www.w3.org/2000/svg" viewBox="0 0 541.39 268.62"><defs><style>.e,.f,.g{fill:#fff;}.e,.h,.i,.g,.j{stroke:#000;stroke-miterlimit:10;}.e,.j{stroke-width:1.35px;}.h{stroke-width:2.12px;}.h,.i{fill:none;}.i{stroke-linecap:round;stroke-width:2px;}.g{stroke-width:2.78px;}.j{fill:#e6e6e6;}</style></defs><g><rect class="f" x="162.1" y="198.1" width="137.47" height="69.04"/><path d="m298.09,199.58v66.07h-134.51v-66.07h134.51m2.96-2.96h-140.44v72h140.44v-72h0Z"/></g><g><path d="m212.32,221.26c-.11-1.97-.23-4.35-.21-6.11h-.06c-.48,1.66-1.07,3.42-1.78,5.38l-2.5,6.87h-1.39l-2.29-6.74c-.67-1.99-1.24-3.82-1.64-5.5h-.04c-.04,1.76-.15,4.14-.27,6.26l-.38,6.07h-1.74l.99-14.15h2.33l2.41,6.84c.59,1.74,1.07,3.3,1.43,4.77h.06c.36-1.43.86-2.98,1.49-4.77l2.52-6.84h2.33l.88,14.15h-1.79l-.36-6.21Z"/><path d="m218.37,222.73c.04,2.5,1.64,3.53,3.49,3.53,1.32,0,2.12-.23,2.81-.52l.31,1.32c-.65.29-1.76.63-3.38.63-3.13,0-5-2.06-5-5.12s1.81-5.48,4.77-5.48c3.32,0,4.2,2.92,4.2,4.79,0,.38-.04.67-.06.86h-7.14Zm5.42-1.32c.02-1.18-.48-3-2.56-3-1.87,0-2.69,1.72-2.83,3h5.4Z"/><path d="m230.09,214.39v2.92h2.65v1.41h-2.65v5.48c0,1.26.36,1.97,1.39,1.97.48,0,.84-.06,1.07-.13l.08,1.39c-.36.15-.92.25-1.64.25-.86,0-1.55-.27-1.99-.78-.53-.55-.71-1.45-.71-2.65v-5.54h-1.58v-1.41h1.58v-2.44l1.81-.48Z"/><path d="m234.81,220.48c0-1.2-.02-2.23-.08-3.17h1.62l.06,1.99h.08c.46-1.36,1.58-2.23,2.81-2.23.21,0,.36.02.53.06v1.74c-.19-.04-.38-.06-.63-.06-1.3,0-2.23.99-2.48,2.37-.04.25-.08.55-.08.86v5.42h-1.83v-6.99Z"/><path d="m243.82,214.45c.02.63-.44,1.13-1.18,1.13-.65,0-1.11-.5-1.11-1.13s.48-1.15,1.16-1.15,1.13.5,1.13,1.15Zm-2.06,13.02v-10.16h1.85v10.16h-1.85Z"/><path d="m253.92,227.09c-.48.25-1.55.59-2.92.59-3.07,0-5.06-2.08-5.06-5.19s2.14-5.4,5.46-5.4c1.09,0,2.06.27,2.56.52l-.42,1.43c-.44-.25-1.13-.48-2.14-.48-2.33,0-3.59,1.72-3.59,3.84,0,2.35,1.51,3.8,3.53,3.8,1.05,0,1.74-.27,2.27-.5l.31,1.39Z"/><path d="m255.83,225.58c.55.36,1.51.73,2.44.73,1.34,0,1.97-.67,1.97-1.51,0-.88-.52-1.36-1.89-1.87-1.83-.65-2.69-1.66-2.69-2.88,0-1.64,1.32-2.98,3.51-2.98,1.03,0,1.93.29,2.5.63l-.46,1.34c-.4-.25-1.13-.59-2.08-.59-1.09,0-1.7.63-1.7,1.39,0,.84.61,1.22,1.93,1.72,1.76.67,2.67,1.55,2.67,3.07,0,1.78-1.39,3.04-3.8,3.04-1.11,0-2.14-.27-2.86-.69l.46-1.41Z"/><path d="m198.44,238.52v8.38c0,3.17,1.41,4.51,3.3,4.51,2.1,0,3.44-1.39,3.44-4.51v-8.38h1.85v8.25c0,4.35-2.29,6.13-5.35,6.13-2.9,0-5.08-1.66-5.08-6.05v-8.34h1.85Z"/><path d="m210.14,245.83c0-1.3-.04-2.35-.08-3.32h1.66l.08,1.74h.04c.76-1.24,1.95-1.97,3.61-1.97,2.46,0,4.3,2.08,4.3,5.17,0,3.65-2.23,5.46-4.62,5.46-1.34,0-2.52-.59-3.13-1.6h-.04v5.52h-1.83v-11Zm1.83,2.71c0,.27.04.52.08.76.34,1.28,1.45,2.16,2.77,2.16,1.95,0,3.09-1.6,3.09-3.93,0-2.04-1.07-3.78-3.02-3.78-1.26,0-2.44.9-2.79,2.29-.06.23-.13.5-.13.76v1.74Z"/><path d="m230.86,237.76v12.28c0,.9.02,1.93.08,2.62h-1.66l-.08-1.76h-.04c-.57,1.13-1.81,1.99-3.46,1.99-2.46,0-4.35-2.08-4.35-5.17-.02-3.38,2.08-5.46,4.56-5.46,1.55,0,2.6.73,3.07,1.55h.04v-6.07h1.85Zm-1.85,8.88c0-.23-.02-.55-.08-.78-.27-1.18-1.28-2.14-2.67-2.14-1.91,0-3.04,1.68-3.04,3.93,0,2.06,1.01,3.76,3,3.76,1.24,0,2.37-.82,2.71-2.2.06-.25.08-.5.08-.8v-1.76Z"/><path d="m239.56,252.67l-.15-1.28h-.06c-.57.8-1.66,1.51-3.11,1.51-2.06,0-3.11-1.45-3.11-2.92,0-2.46,2.18-3.8,6.11-3.78v-.21c0-.84-.23-2.35-2.31-2.35-.95,0-1.93.29-2.65.76l-.42-1.22c.84-.55,2.06-.9,3.34-.9,3.11,0,3.86,2.12,3.86,4.16v3.8c0,.88.04,1.74.17,2.44h-1.68Zm-.27-5.19c-2.02-.04-4.3.31-4.3,2.29,0,1.2.8,1.76,1.74,1.76,1.32,0,2.16-.84,2.46-1.7.06-.19.11-.4.11-.59v-1.76Z"/><path d="m246.19,239.59v2.92h2.65v1.41h-2.65v5.48c0,1.26.36,1.97,1.39,1.97.48,0,.84-.06,1.07-.13l.08,1.39c-.36.15-.92.25-1.64.25-.86,0-1.55-.27-2-.78-.52-.55-.71-1.45-.71-2.65v-5.54h-1.57v-1.41h1.57v-2.44l1.81-.48Z"/><path d="m251.82,247.92c.04,2.5,1.64,3.53,3.49,3.53,1.32,0,2.12-.23,2.81-.52l.32,1.32c-.65.29-1.76.63-3.38.63-3.13,0-5-2.06-5-5.12s1.81-5.48,4.77-5.48c3.32,0,4.2,2.92,4.2,4.79,0,.38-.04.67-.06.86h-7.14Zm5.42-1.32c.02-1.18-.48-3-2.56-3-1.87,0-2.69,1.72-2.83,3h5.4Z"/><path d="m261.31,245.68c0-1.2-.02-2.23-.08-3.17h1.62l.06,1.99h.08c.46-1.36,1.58-2.23,2.81-2.23.21,0,.36.02.53.06v1.74c-.19-.04-.38-.06-.63-.06-1.3,0-2.23.99-2.48,2.37-.04.25-.08.55-.08.86v5.42h-1.83v-6.99Z"/></g><g><line class="h" x1="382.22" y1="232.62" x2="399.56" y2="232.62"/><path d="m382.62,240.59c-4.4,0-7.98-3.57-7.98-7.98s3.57-7.98,7.98-7.98,7.98,3.57,7.98,7.98-3.57,7.98-7.98,7.98Z"/></g><g><line class="h" x1="414.65" y1="120.46" x2="432" y2="120.46"/><path d="m415.05,128.44c-4.4,0-7.98-3.57-7.98-7.98s3.57-7.98,7.98-7.98,7.98,3.57,7.98,7.98-3.57,7.98-7.98,7.98Z"/></g><g><line class="h" x1="126.65" y1="121.85" x2="144" y2="121.85"/><path d="m127.05,129.82c-4.4,0-7.98-3.57-7.98-7.98s3.57-7.98,7.98-7.98,7.98,3.57,7.98,7.98-3.57,7.98-7.98,7.98Z"/></g><g><rect class="f" x="401.05" y="198.1" width="137.47" height="69.04"/><path d="m537.04,199.58v66.07h-134.51v-66.07h134.51m2.96-2.96h-140.44v72h140.44v-72h0Z"/></g><g><path d="m448.22,223.02l-1.47,4.45h-1.89l4.81-14.15h2.21l4.83,14.15h-1.95l-1.51-4.45h-5.02Zm4.64-1.43l-1.39-4.07c-.31-.92-.52-1.76-.73-2.58h-.04c-.21.84-.44,1.7-.71,2.56l-1.39,4.09h4.26Z"/><path d="m457.86,226.4l4.6-5.98c.44-.55.86-1.03,1.32-1.57v-.04h-5.5v-1.49h7.75l-.02,1.15-4.54,5.9c-.42.57-.84,1.07-1.3,1.6v.04h5.94v1.47h-8.25v-1.07Z"/><path d="m476.51,224.7c0,1.05.02,1.97.08,2.77h-1.64l-.1-1.66h-.04c-.48.82-1.55,1.89-3.36,1.89-1.6,0-3.51-.88-3.51-4.45v-5.94h1.85v5.63c0,1.93.59,3.23,2.27,3.23,1.24,0,2.1-.86,2.44-1.68.11-.27.17-.61.17-.94v-6.24h1.85v7.39Z"/><path d="m479.58,220.48c0-1.2-.02-2.23-.08-3.17h1.62l.06,1.99h.08c.46-1.36,1.58-2.23,2.81-2.23.21,0,.36.02.53.06v1.74c-.19-.04-.38-.06-.63-.06-1.3,0-2.23.99-2.48,2.37-.04.25-.08.55-.08.86v5.42h-1.83v-6.99Z"/><path d="m487.26,222.72c.04,2.5,1.64,3.53,3.49,3.53,1.32,0,2.12-.23,2.81-.52l.32,1.32c-.65.29-1.76.63-3.38.63-3.13,0-5-2.06-5-5.12s1.81-5.48,4.77-5.48c3.32,0,4.2,2.92,4.2,4.79,0,.38-.04.67-.06.86h-7.14Zm5.42-1.32c.02-1.18-.48-3-2.56-3-1.87,0-2.69,1.72-2.83,3h5.4Z"/><path d="m448.14,246.45c-.1-1.97-.23-4.35-.21-6.11h-.06c-.48,1.66-1.07,3.42-1.79,5.38l-2.5,6.87h-1.39l-2.29-6.74c-.67-1.99-1.24-3.82-1.64-5.5h-.04c-.04,1.76-.15,4.14-.27,6.26l-.38,6.07h-1.74l.99-14.15h2.33l2.42,6.84c.59,1.74,1.07,3.3,1.43,4.77h.06c.36-1.43.86-2.98,1.49-4.77l2.52-6.84h2.33l.88,14.15h-1.78l-.36-6.21Z"/><path d="m462.36,247.5c0,3.76-2.6,5.4-5.06,5.4-2.75,0-4.87-2.02-4.87-5.23,0-3.4,2.23-5.4,5.04-5.4s4.89,2.12,4.89,5.23Zm-8.06.1c0,2.23,1.28,3.91,3.09,3.91s3.09-1.66,3.09-3.95c0-1.72-.86-3.91-3.04-3.91s-3.13,2.02-3.13,3.95Z"/><path d="m464.69,245.26c0-1.05-.02-1.91-.08-2.75h1.64l.11,1.68h.04c.5-.97,1.68-1.91,3.36-1.91,1.41,0,3.59.84,3.59,4.33v6.07h-1.85v-5.86c0-1.64-.61-3-2.35-3-1.22,0-2.16.86-2.48,1.89-.08.23-.13.55-.13.86v6.11h-1.85v-7.41Z"/><path d="m478.4,239.65c.02.63-.44,1.13-1.18,1.13-.65,0-1.11-.5-1.11-1.13s.48-1.15,1.16-1.15,1.13.5,1.13,1.15Zm-2.06,13.02v-10.16h1.85v10.16h-1.85Z"/><path d="m483.48,239.59v2.92h2.65v1.41h-2.65v5.48c0,1.26.36,1.97,1.39,1.97.48,0,.84-.06,1.07-.13l.08,1.39c-.36.15-.92.25-1.64.25-.86,0-1.55-.27-1.99-.78-.53-.55-.71-1.45-.71-2.65v-5.54h-1.58v-1.41h1.58v-2.44l1.81-.48Z"/><path d="m497.28,247.5c0,3.76-2.6,5.4-5.06,5.4-2.75,0-4.87-2.02-4.87-5.23,0-3.4,2.23-5.4,5.04-5.4s4.89,2.12,4.89,5.23Zm-8.06.1c0,2.23,1.28,3.91,3.09,3.91s3.09-1.66,3.09-3.95c0-1.72-.86-3.91-3.04-3.91s-3.13,2.02-3.13,3.95Z"/><path d="m499.61,245.68c0-1.2-.02-2.23-.08-3.17h1.62l.06,1.99h.08c.46-1.36,1.57-2.23,2.81-2.23.21,0,.36.02.52.06v1.74c-.19-.04-.38-.06-.63-.06-1.3,0-2.23.99-2.48,2.37-.04.25-.08.55-.08.86v5.42h-1.83v-6.99Z"/></g><g><rect class="f" x="1.48" y="4.25" width="137.47" height="38.58"/><path d="m137.47,5.73v35.61H2.96V5.73h134.51m2.96-2.96H0v41.54h140.44V2.77h0Z"/></g><g><path d="m32.26,17.01c.88-.15,2.04-.27,3.51-.27,1.81,0,3.13.42,3.97,1.18.78.67,1.24,1.7,1.24,2.96s-.38,2.29-1.09,3.02c-.96,1.03-2.54,1.55-4.32,1.55-.55,0-1.05-.02-1.47-.13v5.67h-1.83v-13.98Zm1.83,6.82c.4.1.9.15,1.51.15,2.21,0,3.55-1.07,3.55-3.02s-1.32-2.77-3.34-2.77c-.8,0-1.41.06-1.72.15v5.5Z"/><path d="m43.03,24c0-1.2-.02-2.23-.08-3.17h1.62l.06,1.99h.08c.46-1.36,1.57-2.23,2.81-2.23.21,0,.36.02.53.06v1.74c-.19-.04-.38-.06-.63-.06-1.3,0-2.23.99-2.48,2.37-.04.25-.08.55-.08.86v5.42h-1.83v-6.99Z"/><path d="m58.89,25.83c0,3.76-2.6,5.4-5.06,5.4-2.75,0-4.87-2.02-4.87-5.23,0-3.4,2.22-5.4,5.04-5.4s4.89,2.12,4.89,5.23Zm-8.06.1c0,2.23,1.28,3.91,3.09,3.91s3.09-1.66,3.09-3.95c0-1.72-.86-3.91-3.04-3.91s-3.13,2.02-3.13,3.95Z"/><path d="m69.99,16.09v12.28c0,.9.02,1.93.08,2.62h-1.66l-.08-1.76h-.04c-.57,1.13-1.81,1.99-3.46,1.99-2.46,0-4.35-2.08-4.35-5.17-.02-3.38,2.08-5.46,4.56-5.46,1.55,0,2.6.73,3.07,1.55h.04v-6.07h1.85Zm-1.85,8.88c0-.23-.02-.55-.08-.78-.27-1.18-1.28-2.14-2.67-2.14-1.91,0-3.04,1.68-3.04,3.93,0,2.06,1.01,3.76,3,3.76,1.24,0,2.37-.82,2.71-2.2.06-.25.08-.5.08-.8v-1.76Z"/><path d="m81.57,28.22c0,1.05.02,1.97.08,2.77h-1.64l-.11-1.66h-.04c-.48.82-1.55,1.89-3.36,1.89-1.6,0-3.51-.88-3.51-4.45v-5.94h1.85v5.63c0,1.93.59,3.23,2.27,3.23,1.24,0,2.1-.86,2.44-1.68.1-.27.17-.61.17-.94v-6.24h1.85v7.39Z"/><path d="m91.88,30.62c-.48.25-1.55.59-2.92.59-3.07,0-5.06-2.08-5.06-5.19s2.14-5.4,5.46-5.4c1.09,0,2.06.27,2.56.52l-.42,1.43c-.44-.25-1.13-.48-2.14-.48-2.33,0-3.59,1.72-3.59,3.84,0,2.35,1.51,3.8,3.53,3.8,1.05,0,1.74-.27,2.27-.5l.32,1.39Z"/><path d="m94.94,26.25c.04,2.5,1.64,3.53,3.49,3.53,1.32,0,2.12-.23,2.81-.52l.32,1.32c-.65.29-1.76.63-3.38.63-3.13,0-5-2.06-5-5.12s1.81-5.48,4.77-5.48c3.32,0,4.2,2.92,4.2,4.79,0,.38-.04.67-.06.86h-7.14Zm5.42-1.32c.02-1.18-.48-3-2.56-3-1.87,0-2.69,1.72-2.83,3h5.4Z"/><path d="m104.44,24c0-1.2-.02-2.23-.08-3.17h1.62l.06,1.99h.08c.46-1.36,1.58-2.23,2.81-2.23.21,0,.36.02.53.06v1.74c-.19-.04-.38-.06-.63-.06-1.3,0-2.22.99-2.48,2.37-.04.25-.08.55-.08.86v5.42h-1.83v-6.99Z"/></g><g><rect class="f" x="312.43" y="1.48" width="137.47" height="38.58"/><path d="m448.42,2.96v35.61h-134.51V2.96h134.51m2.96-2.96h-140.44v41.54h140.44V0h0Z"/></g><g><path d="m347.69,27.76c-.67.34-2.02.67-3.74.67-3.99,0-6.99-2.52-6.99-7.16s3-7.43,7.39-7.43c1.76,0,2.88.38,3.36.63l-.44,1.49c-.69-.34-1.68-.59-2.86-.59-3.32,0-5.52,2.12-5.52,5.84,0,3.46,2,5.69,5.44,5.69,1.11,0,2.25-.23,2.98-.59l.38,1.45Z"/><path d="m358.88,23.06c0,3.76-2.6,5.4-5.06,5.4-2.75,0-4.87-2.02-4.87-5.23,0-3.4,2.23-5.4,5.04-5.4s4.89,2.12,4.89,5.23Zm-8.06.1c0,2.23,1.28,3.91,3.09,3.91s3.09-1.66,3.09-3.95c0-1.72-.86-3.91-3.04-3.91s-3.13,2.02-3.13,3.95Z"/><path d="m361.22,20.81c0-1.05-.02-1.91-.08-2.75h1.64l.11,1.68h.04c.5-.97,1.68-1.91,3.36-1.91,1.41,0,3.59.84,3.59,4.33v6.07h-1.85v-5.86c0-1.64-.61-3-2.35-3-1.22,0-2.16.86-2.48,1.89-.08.23-.12.55-.12.86v6.11h-1.85v-7.41Z"/><path d="m372.62,26.33c.54.36,1.51.73,2.44.73,1.34,0,1.97-.67,1.97-1.51,0-.88-.52-1.36-1.89-1.87-1.83-.65-2.69-1.66-2.69-2.88,0-1.64,1.32-2.98,3.51-2.98,1.03,0,1.93.29,2.5.63l-.46,1.34c-.4-.25-1.13-.59-2.08-.59-1.09,0-1.7.63-1.7,1.39,0,.84.61,1.22,1.93,1.72,1.76.67,2.67,1.55,2.67,3.07,0,1.78-1.39,3.04-3.8,3.04-1.11,0-2.14-.27-2.86-.69l.46-1.41Z"/><path d="m389.69,25.45c0,1.05.02,1.97.08,2.77h-1.64l-.11-1.66h-.04c-.48.82-1.55,1.89-3.36,1.89-1.6,0-3.51-.88-3.51-4.45v-5.94h1.85v5.63c0,1.93.59,3.23,2.27,3.23,1.24,0,2.1-.86,2.44-1.68.1-.27.17-.61.17-.94v-6.24h1.85v7.39Z"/><path d="m392.76,20.81c0-1.05-.02-1.91-.08-2.75h1.62l.08,1.64h.06c.57-.97,1.51-1.87,3.19-1.87,1.38,0,2.44.84,2.88,2.04h.04c.31-.57.71-1.01,1.13-1.32.61-.46,1.28-.71,2.25-.71,1.34,0,3.34.88,3.34,4.41v5.98h-1.81v-5.75c0-1.95-.71-3.13-2.2-3.13-1.05,0-1.87.78-2.18,1.68-.08.25-.15.59-.15.92v6.28h-1.81v-6.09c0-1.62-.71-2.79-2.12-2.79-1.15,0-1.99.92-2.29,1.85-.1.27-.15.59-.15.9v6.13h-1.8v-7.41Z"/><path d="m411.3,23.48c.04,2.5,1.64,3.53,3.49,3.53,1.32,0,2.12-.23,2.81-.52l.31,1.32c-.65.29-1.76.63-3.38.63-3.13,0-5-2.06-5-5.12s1.81-5.48,4.77-5.48c3.32,0,4.2,2.92,4.2,4.79,0,.38-.04.67-.06.86h-7.14Zm5.42-1.32c.02-1.18-.48-3-2.56-3-1.87,0-2.69,1.72-2.83,3h5.4Z"/><path d="m420.79,21.23c0-1.2-.02-2.23-.08-3.17h1.62l.06,1.99h.08c.46-1.36,1.57-2.23,2.81-2.23.21,0,.36.02.53.06v1.74c-.19-.04-.38-.06-.63-.06-1.3,0-2.23.99-2.48,2.37-.04.25-.08.55-.08.86v5.42h-1.83v-6.99Z"/></g><ellipse class="j" cx="155.08" cy="121.85" rx="11.08" ry="16.62"/><path class="j" d="m155.08,138.46c6.12,0,11.08-7.44,11.08-16.62s-4.96-16.62-11.08-16.62h116.31c6.12,0,11.08,7.44,11.08,16.62s-4.96,16.62-11.08,16.62h-116.31Z"/><path class="e" d="m271.38,138.46c6.12,0,11.08-7.44,11.08-16.62s-4.96-16.62-11.08-16.62h16.62c6.12,0,11.08,7.44,11.08,16.62s-4.96,16.62-11.08,16.62h-16.62Z"/><g><path d="m185.07,121.81h-5.5v5.1h6.13v1.53h-7.96v-14.15h7.64v1.53h-5.82v4.47h5.5v1.51Z"/><path d="m188.58,118.29l2,5.71c.34.92.61,1.76.82,2.6h.06c.23-.84.53-1.68.86-2.6l1.97-5.71h1.93l-3.99,10.16h-1.76l-3.86-10.16h1.97Z"/><path d="m198.78,123.7c.04,2.5,1.64,3.53,3.49,3.53,1.32,0,2.12-.23,2.81-.52l.32,1.32c-.65.29-1.76.63-3.38.63-3.13,0-5-2.06-5-5.12s1.81-5.48,4.77-5.48c3.32,0,4.2,2.92,4.2,4.79,0,.38-.04.67-.06.86h-7.14Zm5.42-1.32c.02-1.18-.48-3-2.56-3-1.87,0-2.69,1.72-2.83,3h5.4Z"/><path d="m208.28,121.04c0-1.05-.02-1.91-.08-2.75h1.64l.1,1.68h.04c.5-.97,1.68-1.91,3.36-1.91,1.41,0,3.59.84,3.59,4.33v6.07h-1.85v-5.86c0-1.64-.61-3-2.35-3-1.22,0-2.16.86-2.48,1.89-.08.23-.13.55-.13.86v6.11h-1.85v-7.41Z"/><path d="m222.07,115.37v2.92h2.65v1.41h-2.65v5.48c0,1.26.36,1.97,1.39,1.97.48,0,.84-.06,1.07-.13l.08,1.39c-.36.15-.92.25-1.64.25-.86,0-1.55-.27-2-.78-.52-.55-.71-1.45-.71-2.65v-5.54h-1.58v-1.41h1.58v-2.44l1.8-.48Z"/><path d="m233.14,114.3v5.92h6.84v-5.92h1.85v14.15h-1.85v-6.63h-6.84v6.63h-1.83v-14.15h1.83Z"/><path d="m253.45,125.68c0,1.05.02,1.97.08,2.77h-1.64l-.1-1.66h-.04c-.48.82-1.55,1.89-3.36,1.89-1.6,0-3.51-.88-3.51-4.45v-5.94h1.85v5.63c0,1.93.59,3.23,2.27,3.23,1.24,0,2.1-.86,2.44-1.68.11-.27.17-.61.17-.94v-6.24h1.85v7.39Z"/><path d="m256.43,128.45c.04-.69.08-1.72.08-2.62v-12.28h1.83v6.38h.04c.65-1.13,1.83-1.87,3.46-1.87,2.52,0,4.3,2.1,4.28,5.19,0,3.63-2.29,5.44-4.56,5.44-1.47,0-2.65-.57-3.4-1.91h-.06l-.08,1.68h-1.6Zm1.91-4.07c0,.23.04.46.08.67.36,1.28,1.43,2.16,2.77,2.16,1.93,0,3.09-1.57,3.09-3.91,0-2.04-1.05-3.78-3.02-3.78-1.26,0-2.44.86-2.81,2.27-.04.21-.11.46-.11.76v1.83Z"/></g><ellipse class="g" cx="486" cy="88.62" rx="54" ry="15.23"/><path class="g" d="m540,145.38c0,8.41-24.18,15.23-54,15.23s-54-6.82-54-15.23v-56.77c0,8.41,24.18,15.23,54,15.23s54-6.82,54-15.23v56.77Z"/><g><path d="m467.46,123.83c-.67.34-2.02.67-3.74.67-3.99,0-6.99-2.52-6.99-7.16s3-7.43,7.39-7.43c1.76,0,2.88.38,3.36.63l-.44,1.49c-.69-.34-1.68-.59-2.86-.59-3.32,0-5.52,2.12-5.52,5.84,0,3.46,2,5.69,5.44,5.69,1.11,0,2.25-.23,2.98-.59l.38,1.45Z"/><path d="m469.68,109.39h1.85v6.34h.04c.29-.52.76-.99,1.32-1.3.55-.31,1.2-.52,1.89-.52,1.36,0,3.55.84,3.55,4.35v6.05h-1.85v-5.84c0-1.64-.61-3.02-2.35-3.02-1.2,0-2.14.84-2.48,1.85-.11.25-.13.52-.13.88v6.13h-1.85v-14.91Z"/><path d="m482.37,119.55c.04,2.5,1.64,3.53,3.49,3.53,1.32,0,2.12-.23,2.81-.52l.32,1.32c-.65.29-1.76.63-3.38.63-3.13,0-5-2.06-5-5.12s1.81-5.48,4.77-5.48c3.32,0,4.2,2.92,4.2,4.79,0,.38-.04.67-.06.86h-7.14Zm5.42-1.32c.02-1.18-.48-3-2.56-3-1.87,0-2.69,1.72-2.83,3h5.4Z"/><path d="m499.1,123.92c-.48.25-1.55.59-2.92.59-3.07,0-5.06-2.08-5.06-5.19s2.14-5.4,5.46-5.4c1.09,0,2.06.27,2.56.52l-.42,1.43c-.44-.25-1.13-.48-2.14-.48-2.33,0-3.59,1.72-3.59,3.84,0,2.35,1.51,3.8,3.53,3.8,1.05,0,1.74-.27,2.27-.5l.31,1.39Z"/><path d="m503.09,118.79h.04c.25-.36.61-.8.9-1.15l2.98-3.51h2.22l-3.93,4.18,4.47,5.98h-2.25l-3.51-4.87-.94,1.05v3.82h-1.83v-14.91h1.83v9.41Z"/><path d="m515.4,117.93v1.36h-5.19v-1.36h5.19Z"/><path d="m459.92,142.65c0-1.3-.04-2.35-.08-3.32h1.66l.08,1.74h.04c.76-1.24,1.95-1.97,3.61-1.97,2.46,0,4.3,2.08,4.3,5.17,0,3.65-2.22,5.46-4.62,5.46-1.34,0-2.52-.59-3.13-1.6h-.04v5.52h-1.83v-11Zm1.83,2.71c0,.27.04.52.08.76.34,1.28,1.45,2.16,2.77,2.16,1.95,0,3.09-1.6,3.09-3.93,0-2.04-1.07-3.78-3.02-3.78-1.26,0-2.44.9-2.79,2.29-.06.23-.13.5-.13.76v1.74Z"/><path d="m481.06,144.33c0,3.76-2.6,5.4-5.06,5.4-2.75,0-4.87-2.02-4.87-5.23,0-3.4,2.23-5.4,5.04-5.4s4.89,2.12,4.89,5.23Zm-8.06.1c0,2.23,1.28,3.91,3.09,3.91s3.09-1.66,3.09-3.95c0-1.72-.86-3.91-3.04-3.91s-3.13,2.02-3.13,3.95Z"/><path d="m485.45,136.48c.02.63-.44,1.13-1.18,1.13-.65,0-1.11-.5-1.11-1.13s.48-1.15,1.15-1.15,1.13.5,1.13,1.15Zm-2.06,13.02v-10.16h1.85v10.16h-1.85Z"/><path d="m488.31,142.08c0-1.05-.02-1.91-.08-2.75h1.64l.1,1.68h.04c.5-.97,1.68-1.91,3.36-1.91,1.41,0,3.59.84,3.59,4.33v6.07h-1.85v-5.86c0-1.64-.61-3-2.35-3-1.22,0-2.16.86-2.48,1.89-.08.23-.13.55-.13.86v6.11h-1.85v-7.41Z"/><path d="m502.11,136.41v2.92h2.65v1.41h-2.65v5.48c0,1.26.36,1.97,1.39,1.97.48,0,.84-.06,1.07-.13l.08,1.39c-.36.15-.92.25-1.64.25-.86,0-1.55-.27-2-.78-.52-.55-.71-1.45-.71-2.65v-5.54h-1.58v-1.41h1.58v-2.44l1.8-.48Z"/><path d="m506.58,147.6c.54.36,1.51.73,2.44.73,1.34,0,1.97-.67,1.97-1.51,0-.88-.52-1.36-1.89-1.87-1.83-.65-2.69-1.66-2.69-2.88,0-1.64,1.32-2.98,3.51-2.98,1.03,0,1.93.29,2.5.63l-.46,1.34c-.4-.25-1.13-.59-2.08-.59-1.09,0-1.7.63-1.7,1.39,0,.84.61,1.22,1.93,1.72,1.76.67,2.67,1.55,2.67,3.07,0,1.78-1.39,3.04-3.8,3.04-1.11,0-2.14-.27-2.86-.69l.46-1.41Z"/></g><g><path class="i" d="m72,44.31v57.54c0,11,9,20,20,20h14.67"/><polygon points="103.9 125.91 119.08 121.85 103.9 117.78 103.9 125.91"/></g><g><path class="i" d="m343.38,41.54v15.23c0,8.38-9,15.23-20,15.23h-70.77c-11,0-20,7.48-20,16.62v4.22"/><polygon points="228.55 90.05 232.62 105.23 236.68 90.05 228.55 90.05"/></g><g><path class="i" d="m379.38,41.54v57.54c0,11,6.23,20,13.85,20h1.44"/><polygon points="391.9 123.14 407.08 119.08 391.9 115.01 391.9 123.14"/></g><g><path class="i" d="m227.08,196.62v-15.23c0-8.38,9-15.23,20-15.23h7.08c11,0,20-6.23,20-13.85v-1.44"/><polygon points="278.22 153.64 274.15 138.46 270.09 153.64 278.22 153.64"/></g><g><path class="i" d="m279.69,196.62v-13.85c0-7.62,9-13.85,20-13.85h95.69c11,0,20-8.72,20-19.38v-6.98"/><polygon points="419.45 145.33 415.38 130.15 411.32 145.33 419.45 145.33"/></g><g><line class="i" x1="301.85" y1="232.62" x2="361.44" y2="232.62"/><polygon points="358.67 236.68 373.85 232.62 358.67 228.55 358.67 236.68"/></g></svg>